<?xml version="1.0" encoding="utf-8"?>
<!-- Generator: Adobe Illustrator 16.0.0, SVG Export Plug-In . SVG Version: 6.00 Build 0)  -->
<!DOCTYPE svg PUBLIC "-//W3C//DTD SVG 1.1//EN" "http://www.w3.org/Graphics/SVG/1.1/DTD/svg11.dtd">
<svg version="1.1" id="Layer_1" xmlns="http://www.w3.org/2000/svg" xmlns:xlink="http://www.w3.org/1999/xlink" x="0px" y="0px"
	 width="393.779px" height="399.182px" viewBox="0 0 393.779 399.182" enable-background="new 0 0 393.779 399.182"
	 xml:space="preserve">
<g>
	<path fill="#FFFFFF" d="M73.949,294.423c-1.088,0-2.175-0.281-3.151-0.843L31.12,270.671c-1.951-1.125-3.151-3.205-3.151-5.455
		v-45.818c0-2.251,1.2-4.331,3.151-5.456l39.678-22.909c1.951-1.125,4.353-1.125,6.304,0l39.678,22.909
		c1.951,1.125,3.15,3.205,3.15,5.456v45.818c0,2.25-1.199,4.33-3.15,5.455l-39.678,22.912
		C76.127,294.142,75.039,294.423,73.949,294.423 M40.572,261.578l33.377,19.27l33.378-19.27v-38.543l-33.378-19.27l-33.377,19.27
		V261.578z"/>
	<path fill="#FFFFFF" d="M122.935,209.578c-1.088,0-2.177-0.283-3.151-0.845l-39.676-22.909c-1.951-1.125-3.151-3.204-3.151-5.455
		v-45.817c0-2.252,1.2-4.332,3.151-5.457l39.676-22.91c1.95-1.125,4.353-1.125,6.304,0l39.678,22.91
		c1.949,1.125,3.149,3.205,3.149,5.457v45.817c0,2.251-1.2,4.33-3.149,5.455l-39.678,22.909
		C125.115,209.295,124.025,209.578,122.935,209.578 M89.558,176.73L122.935,196l33.378-19.27v-38.542l-33.378-19.27l-33.377,19.27
		V176.73z"/>
	<path fill="#FFFFFF" d="M220.909,209.578c-1.089,0-2.176-0.283-3.152-0.845l-39.678-22.909c-1.95-1.125-3.151-3.204-3.151-5.455
		v-45.817c0-2.252,1.201-4.332,3.151-5.457l39.678-22.91c1.951-1.125,4.354-1.125,6.304,0l39.678,22.91
		c1.951,1.125,3.15,3.205,3.15,5.457v45.817c0,2.251-1.199,4.33-3.15,5.455l-39.678,22.909
		C223.085,209.295,221.997,209.578,220.909,209.578 M187.532,176.73l33.377,19.271l33.378-19.271v-38.542l-33.378-19.27
		l-33.377,19.27V176.73z"/>
	<path fill="#FFFFFF" d="M319.831,209.578c-1.088,0-2.175-0.283-3.151-0.845l-39.679-22.909c-1.949-1.125-3.149-3.204-3.149-5.455
		v-45.817c0-2.252,1.2-4.332,3.149-5.457l39.679-22.91c1.951-1.125,4.354-1.125,6.302,0l39.679,22.91
		c1.951,1.125,3.149,3.205,3.149,5.457v45.817c0,2.251-1.198,4.33-3.149,5.455l-39.679,22.909
		C322.008,209.295,320.921,209.578,319.831,209.578 M286.454,176.73L319.831,196l33.377-19.27v-38.542l-33.377-19.27l-33.377,19.27
		V176.73L286.454,176.73z"/>
	<path fill="#FFFFFF" d="M269.894,294.423c-1.088,0-2.177-0.281-3.151-0.843l-39.679-22.91c-1.949-1.125-3.149-3.205-3.149-5.456
		v-45.817c0-2.251,1.198-4.331,3.149-5.457l39.679-22.909c1.95-1.125,4.354-1.125,6.305,0l39.677,22.909
		c1.95,1.126,3.149,3.206,3.149,5.457v45.817c0,2.251-1.199,4.331-3.149,5.456l-39.677,22.91
		C272.072,294.142,270.984,294.423,269.894,294.423 M236.516,261.578l33.378,19.27l33.378-19.27v-38.543l-33.378-19.27
		l-33.378,19.27V261.578z"/>
	<path fill="#FFFFFF" d="M270.019,124.146c-1.088,0-2.176-0.283-3.15-0.845l-39.68-22.909c-1.951-1.126-3.149-3.205-3.149-5.456
		V49.119c0-2.252,1.198-4.331,3.149-5.457l39.68-22.909c1.949-1.127,4.352-1.127,6.302,0l39.68,22.909
		c1.95,1.126,3.149,3.205,3.149,5.457v45.817c0,2.251-1.199,4.33-3.149,5.456l-39.68,22.909
		C272.198,123.863,271.108,124.146,270.019,124.146 M236.642,91.299l33.377,19.271l33.377-19.271V52.757l-33.377-19.27
		l-33.377,19.27V91.299z"/>
	<path fill="#FFFFFF" d="M220.909,379.273c-1.089,0-2.176-0.283-3.152-0.844l-39.678-22.91c-1.95-1.129-3.151-3.206-3.151-5.458
		v-45.814c0-2.252,1.201-4.333,3.151-5.457l39.678-22.909c1.951-1.126,4.354-1.126,6.304,0l39.678,22.909
		c1.951,1.125,3.15,3.205,3.15,5.457v45.814c0,2.252-1.199,4.331-3.15,5.458l-39.678,22.91
		C223.085,378.99,221.997,379.273,220.909,379.273 M187.532,346.424l33.377,19.271l33.378-19.271v-38.54l-33.378-19.271
		l-33.377,19.271V346.424z"/>
	<path fill="#FFFFFF" d="M122.935,379.273c-1.088,0-2.177-0.283-3.151-0.844l-39.676-22.91c-1.951-1.129-3.151-3.206-3.151-5.458
		v-45.814c0-2.252,1.2-4.333,3.151-5.457l39.676-22.909c1.95-1.126,4.353-1.126,6.304,0l39.678,22.909
		c1.949,1.125,3.149,3.205,3.149,5.457v45.814c0,2.252-1.2,4.331-3.149,5.458l-39.678,22.91
		C125.115,378.99,124.025,379.273,122.935,379.273 M89.558,346.424l33.377,19.271l33.378-19.271v-38.54l-33.378-19.271
		l-33.377,19.271V346.424z"/>
	<path fill="#FFFFFF" d="M189.342,279.383c-2.302,0-4.554-1.141-5.883-3.226c-2.064-3.245-1.109-7.551,2.137-9.615l13.272-8.445
		v-24.567l-23.277,13.438c-2.157,1.244-4.811,1.242-6.964,0l-23.276-13.438v24.311l9.144,5.129c3.355,1.88,4.549,6.125,2.669,9.48
		c-1.881,3.354-6.129,4.548-9.481,2.669l-12.703-7.125c-2.197-1.232-3.557-3.555-3.557-6.074v-40.452
		c0-2.489,1.327-4.788,3.481-6.031c2.159-1.247,4.812-1.245,6.965,0l30.239,17.46l30.241-17.46c2.157-1.245,4.81-1.245,6.965,0
		c2.157,1.243,3.482,3.542,3.482,6.031v40.452c0,2.381-1.215,4.599-3.226,5.875l-16.496,10.499
		C191.915,279.03,190.621,279.383,189.342,279.383"/>
</g>
</svg>
