<?xml version="1.0" encoding="utf-8"?>
<!-- Generator: Adobe Illustrator 16.0.0, SVG Export Plug-In . SVG Version: 6.00 Build 0)  -->
<!DOCTYPE svg PUBLIC "-//W3C//DTD SVG 1.1//EN" "http://www.w3.org/Graphics/SVG/1.1/DTD/svg11.dtd">
<svg version="1.1" id="Layer_1" xmlns="http://www.w3.org/2000/svg" xmlns:xlink="http://www.w3.org/1999/xlink" x="0px" y="0px"
	 width="393.779px" height="399.182px" viewBox="0 0 393.779 399.182" enable-background="new 0 0 393.779 399.182"
	 xml:space="preserve">
<g>
	<path fill="#407CCA" d="M116.794,208.07c-0.703,0-1.406-0.183-2.036-0.545L89.12,192.722c-1.261-0.727-2.036-2.071-2.036-3.525
		v-29.605c0-1.455,0.775-2.799,2.036-3.526l25.638-14.803c1.26-0.727,2.812-0.727,4.073,0l25.638,14.803
		c1.26,0.727,2.035,2.071,2.035,3.526v29.605c0,1.454-0.775,2.798-2.035,3.525l-25.638,14.804
		C118.201,207.888,117.498,208.07,116.794,208.07 M95.227,186.846l21.567,12.452l21.567-12.452v-24.904l-21.567-12.451
		l-21.567,12.451V186.846z"/>
	<path fill="#1E428A" d="M148.446,153.247c-0.703,0-1.406-0.183-2.036-0.546l-25.637-14.803c-1.261-0.727-2.036-2.071-2.036-3.525
		v-29.605c0-1.455,0.775-2.799,2.036-3.526l25.637-14.803c1.26-0.727,2.812-0.727,4.073,0l25.638,14.803
		c1.26,0.727,2.035,2.071,2.035,3.526v29.605c0,1.454-0.775,2.798-2.035,3.525l-25.638,14.803
		C149.854,153.064,149.15,153.247,148.446,153.247 M126.88,132.022l21.566,12.451l21.567-12.451v-24.904l-21.567-12.451
		l-21.566,12.451V132.022z"/>
	<path fill="#1E428A" d="M211.752,153.247c-0.703,0-1.406-0.183-2.036-0.546l-25.639-14.803c-1.26-0.727-2.035-2.071-2.035-3.525
		v-29.605c0-1.455,0.775-2.799,2.035-3.526l25.639-14.803c1.26-0.727,2.812-0.727,4.072,0l25.639,14.803
		c1.26,0.727,2.035,2.071,2.035,3.526v29.605c0,1.454-0.775,2.798-2.035,3.525l-25.639,14.803
		C213.158,153.064,212.455,153.247,211.752,153.247 M190.185,132.022l21.567,12.452l21.567-12.452v-24.904l-21.567-12.451
		l-21.567,12.451V132.022z"/>
	<path fill="#002453" d="M275.671,153.247c-0.703,0-1.406-0.183-2.036-0.546l-25.639-14.803c-1.26-0.727-2.035-2.071-2.035-3.525
		v-29.605c0-1.455,0.775-2.799,2.035-3.526l25.639-14.803c1.26-0.727,2.812-0.727,4.072,0l25.638,14.803
		c1.26,0.727,2.035,2.071,2.035,3.526v29.605c0,1.454-0.775,2.798-2.035,3.525l-25.638,14.803
		C277.077,153.064,276.375,153.247,275.671,153.247 M254.104,132.022l21.567,12.451l21.566-12.451v-24.904l-21.566-12.451
		l-21.567,12.451V132.022z"/>
	<path fill="#407CCA" d="M243.404,208.07c-0.703,0-1.406-0.183-2.036-0.545l-25.639-14.804c-1.26-0.727-2.035-2.071-2.035-3.525
		v-29.605c0-1.455,0.775-2.799,2.035-3.526l25.639-14.803c1.26-0.727,2.812-0.727,4.073,0l25.638,14.803
		c1.26,0.727,2.035,2.071,2.035,3.526v29.605c0,1.454-0.775,2.798-2.035,3.525l-25.638,14.804
		C244.811,207.888,244.108,208.07,243.404,208.07 M221.837,186.846l21.567,12.452l21.567-12.452v-24.904l-21.567-12.451
		l-21.567,12.451V186.846z"/>
	<path fill="#002453" d="M243.485,98.045c-0.703,0-1.406-0.183-2.036-0.546l-25.639-14.803c-1.26-0.727-2.035-2.071-2.035-3.525
		V49.566c0-1.455,0.775-2.799,2.035-3.526l25.639-14.803c1.26-0.728,2.812-0.728,4.072,0L271.16,46.04
		c1.26,0.727,2.035,2.071,2.035,3.526v29.605c0,1.454-0.775,2.798-2.035,3.525l-25.639,14.803
		C244.892,97.862,244.188,98.045,243.485,98.045 M221.918,76.82l21.567,12.452l21.567-12.452V51.916l-21.567-12.451l-21.567,12.451
		V76.82z"/>
	<path fill="#40B4E5" d="M211.752,262.895c-0.703,0-1.406-0.182-2.036-0.545l-25.639-14.803c-1.26-0.729-2.035-2.071-2.035-3.526
		v-29.604c0-1.455,0.775-2.8,2.035-3.526l25.639-14.803c1.26-0.727,2.812-0.727,4.072,0l25.639,14.803
		c1.26,0.727,2.035,2.071,2.035,3.526v29.604c0,1.455-0.775,2.798-2.035,3.526l-25.639,14.803
		C213.158,262.713,212.455,262.895,211.752,262.895 M190.185,241.67l21.567,12.451l21.567-12.451v-24.904l-21.567-12.451
		l-21.567,12.451V241.67z"/>
	<path fill="#40B4E5" d="M148.446,262.895c-0.703,0-1.406-0.182-2.036-0.545l-25.637-14.803c-1.261-0.729-2.036-2.071-2.036-3.526
		v-29.604c0-1.455,0.775-2.8,2.036-3.526l25.637-14.803c1.26-0.727,2.812-0.727,4.073,0l25.638,14.803
		c1.26,0.727,2.035,2.071,2.035,3.526v29.604c0,1.455-0.775,2.798-2.035,3.526l-25.638,14.803
		C149.854,262.713,149.15,262.895,148.446,262.895 M126.88,241.67l21.566,12.451l21.567-12.451v-24.904l-21.567-12.451
		l-21.566,12.451V241.67z"/>
	<path fill="#003764" d="M191.354,198.351c-1.487,0-2.942-0.737-3.801-2.084c-1.334-2.097-0.716-4.879,1.381-6.213l8.576-5.457
		v-15.874l-15.041,8.683c-1.393,0.804-3.108,0.803-4.5,0l-15.04-8.683v15.708l5.909,3.314c2.168,1.215,2.939,3.958,1.724,6.126
		c-1.216,2.167-3.96,2.939-6.126,1.724l-8.208-4.603c-1.42-0.796-2.299-2.297-2.299-3.925v-26.139c0-1.608,0.858-3.093,2.25-3.897
		c1.395-0.805,3.109-0.804,4.5,0l19.54,11.282l19.541-11.282c1.393-0.804,3.107-0.804,4.5,0c1.393,0.804,2.25,2.289,2.25,3.897
		v26.139c0,1.538-0.786,2.971-2.084,3.796l-10.66,6.784C193.017,198.123,192.181,198.351,191.354,198.351"/>
	<path fill="#407CCA" d="M250.101,334.141h3.349v20.228c0,2.399,0.045,3.895,0.137,4.487c0.167,1.32,0.554,2.426,1.16,3.313
		c0.608,0.89,1.542,1.633,2.803,2.233c1.261,0.6,2.529,0.898,3.805,0.898c1.108,0,2.172-0.233,3.189-0.706
		c1.017-0.47,1.867-1.123,2.551-1.959c0.684-0.835,1.185-1.845,1.504-3.028c0.228-0.852,0.341-2.598,0.341-5.239v-20.228h3.349
		v20.228c0,2.992-0.292,5.41-0.877,7.254c-0.585,1.846-1.754,3.452-3.508,4.819c-1.754,1.366-3.876,2.05-6.366,2.05
		c-2.704,0-5.02-0.646-6.948-1.938c-1.929-1.29-3.22-2.999-3.872-5.125c-0.41-1.306-0.615-3.658-0.615-7.061V334.141z"/>
	<polygon fill="#407CCA" points="286.621,367.648 286.621,334.14 287.35,334.14 309.65,359.826 309.65,334.14 312.953,334.14 
		312.953,367.648 312.202,367.648 290.083,342.275 290.083,367.648 	"/>
	<path fill="#407CCA" d="M337.532,333.297c5.075,0,9.322,1.694,12.741,5.079c3.419,3.388,5.129,7.557,5.129,12.506
		c0,4.905-1.706,9.067-5.118,12.484c-3.411,3.417-7.57,5.125-12.479,5.125c-4.969,0-9.163-1.701-12.582-5.103
		s-5.129-7.518-5.129-12.348c0-3.218,0.779-6.203,2.336-8.952c1.558-2.748,3.682-4.899,6.371-6.457
		C331.491,334.075,334.401,333.297,337.532,333.297 M337.681,336.555c-2.479,0-4.83,0.646-7.051,1.938s-3.955,3.033-5.202,5.22
		c-1.247,2.19-1.87,4.628-1.87,7.319c0,3.981,1.38,7.344,4.141,10.087c2.761,2.744,6.087,4.115,9.982,4.115
		c2.601,0,5.008-0.63,7.221-1.893c2.213-1.262,3.939-2.985,5.179-5.175c1.24-2.188,1.86-4.62,1.86-7.295
		c0-2.66-0.62-5.064-1.86-7.215c-1.239-2.151-2.984-3.872-5.235-5.164C342.593,337.2,340.205,336.555,337.681,336.555"/>
	<polygon fill="#003764" points="46.977,273.951 56.188,273.951 67.703,308.596 79.322,273.951 88.526,273.951 96.858,323.621 
		87.716,323.621 82.391,292.253 71.839,323.621 63.507,323.621 53.048,292.253 47.595,323.621 38.377,323.621 	"/>
	<path fill="#003764" d="M127.84,272.703c7.026,0,13.068,2.544,18.126,7.631c5.057,5.088,7.585,11.289,7.585,18.604
		c0,7.249-2.495,13.383-7.484,18.403c-4.989,5.019-11.043,7.529-18.16,7.529c-7.456,0-13.649-2.577-18.583-7.732
		s-7.398-11.278-7.398-18.369c0-4.749,1.147-9.116,3.445-13.1c2.298-3.985,5.456-7.143,9.478-9.473
		C118.867,273.867,123.198,272.703,127.84,272.703 M127.737,281.955c-4.598,0-8.462,1.599-11.594,4.794
		c-3.133,3.196-4.698,7.26-4.698,12.188c0,5.494,1.973,9.838,5.915,13.034c3.065,2.499,6.58,3.748,10.546,3.748
		c4.483,0,8.304-1.62,11.458-4.863c3.154-3.241,4.732-7.235,4.732-11.985c0-4.729-1.588-8.729-4.766-12.005
		C136.153,283.593,132.29,281.955,127.737,281.955"/>
	<path fill="#003764" d="M158.349,273.952h11.201c7.219,0,12.583,0.894,16.092,2.684c3.508,1.789,6.398,4.7,8.67,8.729
		c2.271,4.028,3.408,8.732,3.408,14.112c0,3.827-0.636,7.346-1.906,10.553c-1.271,3.208-3.025,5.869-5.264,7.984
		c-2.238,2.117-4.661,3.579-7.27,4.391c-2.608,0.81-7.13,1.216-13.562,1.216h-11.37V273.952z M167.735,283.068v31.335h4.391
		c4.321,0,7.456-0.495,9.403-1.487c1.946-0.992,3.539-2.66,4.777-5.003c1.237-2.343,1.857-5.229,1.857-8.654
		c0-5.271-1.475-9.363-4.424-12.269c-2.655-2.614-6.922-3.922-12.797-3.922H167.735z"/>
	<path fill="#003764" d="M206.397,273.951h9.488v32.119c0,2.768,0.24,4.725,0.726,5.87c0.484,1.148,1.283,2.064,2.397,2.75
		c1.114,0.687,2.459,1.029,4.034,1.029c1.666,0,3.102-0.382,4.306-1.147c1.204-0.765,2.037-1.736,2.499-2.918
		c0.461-1.181,0.692-3.435,0.692-6.765v-30.938h9.487v29.612c0,4.997-0.281,8.464-0.844,10.4c-0.562,1.936-1.638,3.804-3.225,5.604
		c-1.587,1.802-3.416,3.136-5.487,4.001c-2.071,0.866-4.479,1.301-7.226,1.301c-3.602,0-6.736-0.827-9.403-2.481
		c-2.668-1.655-4.575-3.726-5.724-6.213c-1.147-2.488-1.722-6.691-1.722-12.612V273.951z"/>
	<polygon fill="#003764" points="251.002,273.951 260.456,273.951 260.456,314.604 274.232,314.604 274.232,323.621 
		251.002,323.621 	"/>
	<path fill="#003764" d="M281.087,273.951h9.488v32.119c0,2.768,0.241,4.725,0.726,5.87c0.484,1.148,1.283,2.064,2.397,2.75
		c1.114,0.687,2.459,1.029,4.035,1.029c1.665,0,3.101-0.382,4.305-1.147c1.204-0.765,2.037-1.736,2.499-2.918
		c0.461-1.181,0.692-3.435,0.692-6.765v-30.938h9.487v29.612c0,4.997-0.281,8.464-0.844,10.4c-0.562,1.936-1.638,3.804-3.225,5.604
		c-1.587,1.802-3.416,3.136-5.487,4.001c-2.071,0.866-4.479,1.301-7.226,1.301c-3.602,0-6.736-0.827-9.403-2.481
		c-2.668-1.655-4.575-3.726-5.724-6.213c-1.147-2.488-1.722-6.691-1.722-12.612V273.951z"/>
	<path fill="#003764" d="M351.758,280.705l-7.002,6.18c-2.459-3.422-4.961-5.133-7.51-5.133c-1.24,0-2.255,0.332-3.044,0.996
		s-1.184,1.413-1.184,2.244c0,0.833,0.281,1.621,0.846,2.364c0.767,0.991,3.077,3.119,6.934,6.382
		c3.607,3.018,5.795,4.918,6.562,5.706c1.916,1.938,3.274,3.787,4.076,5.556c0.801,1.767,1.2,3.696,1.2,5.79
		c0,4.074-1.408,7.439-4.226,10.096c-2.816,2.657-6.489,3.984-11.019,3.984c-3.538,0-6.62-0.866-9.245-2.601
		c-2.625-1.732-4.873-4.457-6.742-8.17l7.945-4.795c2.391,4.389,5.141,6.584,8.252,6.584c1.623,0,2.987-0.473,4.092-1.418
		c1.104-0.946,1.657-2.037,1.657-3.276c0-1.125-0.418-2.251-1.252-3.376c-0.834-1.126-2.672-2.847-5.513-5.167
		c-5.412-4.411-8.907-7.815-10.486-10.214c-1.578-2.396-2.367-4.788-2.367-7.174c0-3.445,1.312-6.399,3.938-8.864
		s5.865-3.696,9.72-3.696c2.479,0,4.84,0.573,7.082,1.722C346.715,275.572,349.144,277.666,351.758,280.705"/>
</g>
</svg>
